# xmcd
#
# Track frame offsets:
#	150
#	10263
#	27284
#	39989
#	52641
#	68312
#	80688
#	91222
#	101764
#	114177
#
# Disc length: 1685 seconds
#
# Revision: 0
# Processed by: cddbd v1.5.2PL0 Copyright (c) Steve Scherf et al.
# Submitted via: EasyCDDAExtractor 10.0.3.1
#
DISCID=6506930a
DTITLE=Charley Pride - In Person
DYEAR=1989
DGENRE=Country
TTITLE0=Just Between You And Me
TTITLE1=I Know One
TTITLE2=Lovesick Blues
TTITLE3=The Image Of Me
TTITLE4=Kaw-Liga
TTITLE5=Six Days On The Road
TTITLE6=Streets Of Baltimore
TTITLE7=Got Leavin' On Her Mind
TTITLE8=Crystal Chandeliers
TTITLE9=Cotton Fields
EXTD=
EXTT0=
EXTT1=
EXTT2=
EXTT3=
EXTT4=
EXTT5=
EXTT6=
EXTT7=
EXTT8=
EXTT9=
PLAYORDER=
